{
  "asset": {
    "version": "2.0",
    "generator": "THREE.GLTFExporter r182"
  },
  "scenes": [
    {
      "name": "Scene",
      "nodes": [
        0,
        1
      ]
    }
  ],
  "scene": 0,
  "nodes": [
    {
      "matrix": [
        -0.2908646775532549,
        -0.05518904522473682,
        -0.9551712124420509,
        0,
        -0.7711009254164625,
        0.6045246338968102,
        0.19988339509297365,
        0,
        0.5663931554665306,
        0.7946723905074929,
        -0.21839119484224845,
        0,
        1.164906240719138,
        2.239671321219456,
        3.295711316996171,
        1
      ],
      "name": "Light",
      "extras": {
        "name": "Light"
      },
      "extensions": {
        "KHR_lights_punctual": {
          "light": 0
        }
      }
    },
    {
      "matrix": [
        1.0983479022979736,
        0,
        0,
        0,
        0,
        1.5524094104766846,
        0,
        0,
        0,
        0,
        0.08718471229076385,
        0,
        0,
        0,
        0,
        1
      ],
      "name": "Cube001",
      "extras": {
        "name": "Cube.001"
      },
      "children": [
        2,
        3,
        4,
        5
      ]
    },
    {
      "name": "Cube002",
      "mesh": 0
    },
    {
      "name": "Cube002_1",
      "mesh": 1
    },
    {
      "name": "Cube002_2",
      "mesh": 2
    },
    {
      "name": "Cube002_3",
      "mesh": 3
    }
  ],
  "extensions": {
    "KHR_lights_punctual": {
      "lights": [
        {
          "name": "Light",
          "color": [
            1,
            1,
            1
          ],
          "intensity": 12.78,
          "type": "point"
        }
      ]
    }
  },
  "bufferViews": [
    {
      "buffer": 0,
      "byteOffset": 0,
      "byteLength": 33672,
      "target": 34962,
      "byteStride": 12
    },
    {
      "buffer": 0,
      "byteOffset": 33672,
      "byteLength": 33672,
      "target": 34962,
      "byteStride": 12
    },
    {
      "buffer": 0,
      "byteOffset": 67344,
      "byteLength": 22448,
      "target": 34962,
      "byteStride": 8
    },
    {
      "buffer": 0,
      "byteOffset": 89792,
      "byteLength": 19808,
      "target": 34963
    },
    {
      "buffer": 0,
      "byteOffset": 109600,
      "byteLength": 10320,
      "target": 34962,
      "byteStride": 12
    },
    {
      "buffer": 0,
      "byteOffset": 119920,
      "byteLength": 10320,
      "target": 34962,
      "byteStride": 12
    },
    {
      "buffer": 0,
      "byteOffset": 130240,
      "byteLength": 6880,
      "target": 34962,
      "byteStride": 8
    },
    {
      "buffer": 0,
      "byteOffset": 137120,
      "byteLength": 6684,
      "target": 34963
    },
    {
      "buffer": 0,
      "byteOffset": 143804,
      "byteLength": 16032,
      "target": 34962,
      "byteStride": 12
    },
    {
      "buffer": 0,
      "byteOffset": 159836,
      "byteLength": 16032,
      "target": 34962,
      "byteStride": 12
    },
    {
      "buffer": 0,
      "byteOffset": 175868,
      "byteLength": 10688,
      "target": 34962,
      "byteStride": 8
    },
    {
      "buffer": 0,
      "byteOffset": 186556,
      "byteLength": 7572,
      "target": 34963
    },
    {
      "buffer": 0,
      "byteOffset": 194128,
      "byteLength": 13116,
      "target": 34962,
      "byteStride": 12
    },
    {
      "buffer": 0,
      "byteOffset": 207244,
      "byteLength": 13116,
      "target": 34962,
      "byteStride": 12
    },
    {
      "buffer": 0,
      "byteOffset": 220360,
      "byteLength": 8744,
      "target": 34962,
      "byteStride": 8
    },
    {
      "buffer": 0,
      "byteOffset": 229104,
      "byteLength": 6152,
      "target": 34963
    }
  ],
  "buffers": [
    {
      "byteLength": 235256,
      "uri": "data:application/octet-stream;base64,"
    }
  ],
  "accessors": [
    {
      "bufferView": 0,
      "componentType": 5126,
      "count": 2806,
      "max": [
        1.0389275550842285,
        1.1713736057281494,
        0.9498848915100098
      ],
      "min": [
        -1.038926601409912,
        -1.1219736337661743,
        -0.2216499149799347
      ],
      "type": "VEC3"
    },
    {
      "bufferView": 1,
      "componentType": 5126,
      "count": 2806,
      "max": [
        1,
        0.9999936819076538,
        0.9999768733978271
      ],
      "min": [
        -1,
        -0.9999980926513672,
        -0.9980604648590088
      ],
      "type": "VEC3"
    },
    {
      "bufferView": 2,
      "componentType": 5126,
      "count": 2806,
      "max": [
        0.466156005859375,
        0.9114056825637817
      ],
      "min": [
        0.04396306350827217,
        0.07109898328781128
      ],
      "type": "VEC2"
    },
    {
      "bufferView": 3,
      "componentType": 5123,
      "count": 9903,
      "max": [
        2805
      ],
      "min": [
        0
      ],
      "type": "SCALAR"
    },
    {
      "bufferView": 4,
      "componentType": 5126,
      "count": 860,
      "max": [
        1.0389275550842285,
        1.1670340299606323,
        1.1030353519458913e-8
      ],
      "min": [
        -1.038926601409912,
        -1.1202529668807983,
        -0.9498850107192993
      ],
      "type": "VEC3"
    },
    {
      "bufferView": 5,
      "componentType": 5126,
      "count": 860,
      "max": [
        1,
        0.9917873740196228,
        0
      ],
      "min": [
        -1,
        -0.9985572695732117,
        -0.9999768733978271
      ],
      "type": "VEC3"
    },
    {
      "bufferView": 6,
      "componentType": 5126,
      "count": 860,
      "max": [
        0.9505918622016907,
        0.9148409962654114
      ],
      "min": [
        0.5243927836418152,
        0.06764662265777588
      ],
      "type": "VEC2"
    },
    {
      "bufferView": 7,
      "componentType": 5123,
      "count": 3342,
      "max": [
        859
      ],
      "min": [
        0
      ],
      "type": "SCALAR"
    },
    {
      "bufferView": 8,
      "componentType": 5126,
      "count": 1336,
      "max": [
        1.0389275550842285,
        -1.0967403650283813,
        0.1621735841035843
      ],
      "min": [
        -1.038926601409912,
        -1.1219736337661743,
        -0.16216644644737244
      ],
      "type": "VEC3"
    },
    {
      "bufferView": 9,
      "componentType": 5126,
      "count": 1336,
      "max": [
        0.7269266843795776,
        -0.4496120810508728,
        0.7247645854949951
      ],
      "min": [
        -0.8932239413261414,
        -0.9726536273956299,
        -0.7247781157493591
      ],
      "type": "VEC3"
    },
    {
      "bufferView": 10,
      "componentType": 5126,
      "count": 1336,
      "max": [
        0.428598016500473,
        0.46029895544052124
      ],
      "min": [
        0.02153235301375389,
        0.2755587100982666
      ],
      "type": "VEC2"
    },
    {
      "bufferView": 11,
      "componentType": 5123,
      "count": 3786,
      "max": [
        1335
      ],
      "min": [
        0
      ],
      "type": "SCALAR"
    },
    {
      "bufferView": 12,
      "componentType": 5126,
      "count": 1093,
      "max": [
        1.0389275550842285,
        1.1713736057281494,
        0.11313233524560928
      ],
      "min": [
        -1.038926601409912,
        1.1467634439468384,
        -0.11313505470752716
      ],
      "type": "VEC3"
    },
    {
      "bufferView": 13,
      "componentType": 5126,
      "count": 1093,
      "max": [
        0.6293229460716248,
        0.9782301187515259,
        0.739420473575592
      ],
      "min": [
        -0.921492338180542,
        0.3883967399597168,
        -0.739420473575592
      ],
      "type": "VEC3"
    },
    {
      "bufferView": 14,
      "componentType": 5126,
      "count": 1093,
      "max": [
        0.43265384435653687,
        0.38557904958724976
      ],
      "min": [
        0.012974336743354797,
        0.2754969000816345
      ],
      "type": "VEC2"
    },
    {
      "bufferView": 15,
      "componentType": 5123,
      "count": 3075,
      "max": [
        1092
      ],
      "min": [
        0
      ],
      "type": "SCALAR"
    }
  ],
  "materials": [
    {
      "pbrMetallicRoughness": {
        "metallicFactor": 0,
        "roughnessFactor": 0.14220182597637177
      },
      "doubleSided": true,
      "name": "FRONT"
    },
    {
      "pbrMetallicRoughness": {
        "metallicFactor": 0,
        "roughnessFactor": 0.19818180799484253
      },
      "doubleSided": true,
      "name": "BACK"
    }
  ],
  "meshes": [
    {
      "primitives": [
        {
          "mode": 4,
          "attributes": {
            "POSITION": 0,
            "NORMAL": 1,
            "TEXCOORD_0": 2
          },
          "indices": 3,
          "material": 0
        }
      ]
    },
    {
      "primitives": [
        {
          "mode": 4,
          "attributes": {
            "POSITION": 4,
            "NORMAL": 5,
            "TEXCOORD_0": 6
          },
          "indices": 7,
          "material": 1
        }
      ]
    },
    {
      "primitives": [
        {
          "mode": 4,
          "attributes": {
            "POSITION": 8,
            "NORMAL": 9,
            "TEXCOORD_0": 10
          },
          "indices": 11,
          "material": 1
        }
      ]
    },
    {
      "primitives": [
        {
          "mode": 4,
          "attributes": {
            "POSITION": 12,
            "NORMAL": 13,
            "TEXCOORD_0": 14
          },
          "indices": 15,
          "material": 1
        }
      ]
    }
  ],
  "extensionsUsed": [
    "KHR_lights_punctual"
  ]
}